<mxfile host="app.diagrams.net" modified="2020-10-15T23:32:28.482Z" agent="5.0 (Macintosh)" etag="rbavRzACh2lkq8RLaZrY" version="13.8.0" type="github">
  <diagram id="C5RBs43oDa-KdzZeNtuy" name="Page-1">
    <mxGraphModel dx="1699" dy="415" grid="1" gridSize="10" guides="1" tooltips="1" connect="1" arrows="1" fold="1" page="1" pageScale="1" pageWidth="827" pageHeight="1169" math="0" shadow="0">
      <root>
        <mxCell id="WIyWlLk6GJQsqaUBKTNV-0" />
        <mxCell id="WIyWlLk6GJQsqaUBKTNV-1" parent="WIyWlLk6GJQsqaUBKTNV-0" />
        <mxCell id="7qxpXvlb6t2TTMwRAWj1-13" style="edgeStyle=orthogonalEdgeStyle;rounded=0;orthogonalLoop=1;jettySize=auto;html=1;entryX=0.5;entryY=0;entryDx=0;entryDy=0;startArrow=classic;startFill=1;" edge="1" parent="WIyWlLk6GJQsqaUBKTNV-1" source="7qxpXvlb6t2TTMwRAWj1-0" target="7qxpXvlb6t2TTMwRAWj1-11">
          <mxGeometry relative="1" as="geometry" />
        </mxCell>
        <mxCell id="7qxpXvlb6t2TTMwRAWj1-20" style="edgeStyle=orthogonalEdgeStyle;rounded=0;orthogonalLoop=1;jettySize=auto;html=1;entryX=0;entryY=0.5;entryDx=0;entryDy=0;startArrow=classic;startFill=1;" edge="1" parent="WIyWlLk6GJQsqaUBKTNV-1" source="7qxpXvlb6t2TTMwRAWj1-0" target="7qxpXvlb6t2TTMwRAWj1-18">
          <mxGeometry relative="1" as="geometry" />
        </mxCell>
        <mxCell id="7qxpXvlb6t2TTMwRAWj1-0" value="Ordenador" style="whiteSpace=wrap;html=1;aspect=fixed;" vertex="1" parent="WIyWlLk6GJQsqaUBKTNV-1">
          <mxGeometry x="280" y="200" width="120" height="120" as="geometry" />
        </mxCell>
        <mxCell id="7qxpXvlb6t2TTMwRAWj1-1" style="edgeStyle=orthogonalEdgeStyle;rounded=0;orthogonalLoop=1;jettySize=auto;html=1;exitX=0.25;exitY=0;exitDx=0;exitDy=0;entryX=0.25;entryY=1;entryDx=0;entryDy=0;" edge="1" parent="WIyWlLk6GJQsqaUBKTNV-1" source="7qxpXvlb6t2TTMwRAWj1-3" target="7qxpXvlb6t2TTMwRAWj1-9">
          <mxGeometry relative="1" as="geometry" />
        </mxCell>
        <mxCell id="7qxpXvlb6t2TTMwRAWj1-2" style="edgeStyle=orthogonalEdgeStyle;rounded=0;orthogonalLoop=1;jettySize=auto;html=1;entryX=0.5;entryY=0;entryDx=0;entryDy=0;startArrow=none;startFill=0;" edge="1" parent="WIyWlLk6GJQsqaUBKTNV-1" source="7qxpXvlb6t2TTMwRAWj1-3" target="7qxpXvlb6t2TTMwRAWj1-12">
          <mxGeometry relative="1" as="geometry" />
        </mxCell>
        <mxCell id="7qxpXvlb6t2TTMwRAWj1-3" value="&lt;div&gt;Comunicacion&lt;/div&gt;&lt;div&gt;TCP&lt;/div&gt;" style="rounded=1;whiteSpace=wrap;html=1;" vertex="1" parent="WIyWlLk6GJQsqaUBKTNV-1">
          <mxGeometry x="280" y="640" width="120" height="40" as="geometry" />
        </mxCell>
        <mxCell id="7qxpXvlb6t2TTMwRAWj1-4" style="edgeStyle=orthogonalEdgeStyle;rounded=0;orthogonalLoop=1;jettySize=auto;html=1;exitX=0.75;exitY=1;exitDx=0;exitDy=0;entryX=0.75;entryY=0;entryDx=0;entryDy=0;" edge="1" parent="WIyWlLk6GJQsqaUBKTNV-1" source="7qxpXvlb6t2TTMwRAWj1-6" target="7qxpXvlb6t2TTMwRAWj1-9">
          <mxGeometry relative="1" as="geometry" />
        </mxCell>
        <mxCell id="7qxpXvlb6t2TTMwRAWj1-5" style="edgeStyle=orthogonalEdgeStyle;rounded=0;orthogonalLoop=1;jettySize=auto;html=1;entryX=0;entryY=0.5;entryDx=0;entryDy=0;" edge="1" parent="WIyWlLk6GJQsqaUBKTNV-1" source="7qxpXvlb6t2TTMwRAWj1-6" target="7qxpXvlb6t2TTMwRAWj1-11">
          <mxGeometry relative="1" as="geometry">
            <Array as="points">
              <mxPoint x="240" y="500" />
              <mxPoint x="240" y="400" />
            </Array>
          </mxGeometry>
        </mxCell>
        <mxCell id="7qxpXvlb6t2TTMwRAWj1-6" value="&lt;div&gt;Encryptacion/&lt;/div&gt;&lt;div&gt;Decriptacion&lt;br&gt;&lt;/div&gt;" style="rounded=1;whiteSpace=wrap;html=1;" vertex="1" parent="WIyWlLk6GJQsqaUBKTNV-1">
          <mxGeometry x="280" y="480" width="120" height="40" as="geometry" />
        </mxCell>
        <mxCell id="7qxpXvlb6t2TTMwRAWj1-7" style="edgeStyle=orthogonalEdgeStyle;rounded=0;orthogonalLoop=1;jettySize=auto;html=1;exitX=0.25;exitY=0;exitDx=0;exitDy=0;entryX=0.25;entryY=1;entryDx=0;entryDy=0;" edge="1" parent="WIyWlLk6GJQsqaUBKTNV-1" source="7qxpXvlb6t2TTMwRAWj1-9" target="7qxpXvlb6t2TTMwRAWj1-6">
          <mxGeometry relative="1" as="geometry" />
        </mxCell>
        <mxCell id="7qxpXvlb6t2TTMwRAWj1-8" style="edgeStyle=orthogonalEdgeStyle;rounded=0;orthogonalLoop=1;jettySize=auto;html=1;exitX=0.75;exitY=1;exitDx=0;exitDy=0;entryX=0.75;entryY=0;entryDx=0;entryDy=0;" edge="1" parent="WIyWlLk6GJQsqaUBKTNV-1" source="7qxpXvlb6t2TTMwRAWj1-9" target="7qxpXvlb6t2TTMwRAWj1-3">
          <mxGeometry relative="1" as="geometry" />
        </mxCell>
        <mxCell id="7qxpXvlb6t2TTMwRAWj1-9" value="Tarjeta wi-fi" style="rounded=0;whiteSpace=wrap;html=1;" vertex="1" parent="WIyWlLk6GJQsqaUBKTNV-1">
          <mxGeometry x="280" y="560" width="120" height="40" as="geometry" />
        </mxCell>
        <mxCell id="7qxpXvlb6t2TTMwRAWj1-10" style="edgeStyle=orthogonalEdgeStyle;rounded=0;orthogonalLoop=1;jettySize=auto;html=1;entryX=1;entryY=0.5;entryDx=0;entryDy=0;" edge="1" parent="WIyWlLk6GJQsqaUBKTNV-1" source="7qxpXvlb6t2TTMwRAWj1-11" target="7qxpXvlb6t2TTMwRAWj1-6">
          <mxGeometry relative="1" as="geometry">
            <Array as="points">
              <mxPoint x="440" y="400" />
              <mxPoint x="440" y="500" />
            </Array>
          </mxGeometry>
        </mxCell>
        <mxCell id="7qxpXvlb6t2TTMwRAWj1-11" value="&lt;div&gt;Conexion &lt;br&gt;&lt;/div&gt;&lt;div&gt;Establecida&lt;/div&gt;" style="rhombus;whiteSpace=wrap;html=1;" vertex="1" parent="WIyWlLk6GJQsqaUBKTNV-1">
          <mxGeometry x="280" y="360" width="120" height="80" as="geometry" />
        </mxCell>
        <mxCell id="7qxpXvlb6t2TTMwRAWj1-12" value="" style="ellipse;whiteSpace=wrap;html=1;aspect=fixed;" vertex="1" parent="WIyWlLk6GJQsqaUBKTNV-1">
          <mxGeometry x="320" y="720" width="40" height="40" as="geometry" />
        </mxCell>
        <mxCell id="7qxpXvlb6t2TTMwRAWj1-17" style="edgeStyle=orthogonalEdgeStyle;rounded=0;orthogonalLoop=1;jettySize=auto;html=1;entryX=0;entryY=0.5;entryDx=0;entryDy=0;startArrow=none;startFill=0;" edge="1" parent="WIyWlLk6GJQsqaUBKTNV-1" source="7qxpXvlb6t2TTMwRAWj1-14" target="7qxpXvlb6t2TTMwRAWj1-0">
          <mxGeometry relative="1" as="geometry" />
        </mxCell>
        <mxCell id="7qxpXvlb6t2TTMwRAWj1-14" value="Python" style="rounded=1;whiteSpace=wrap;html=1;" vertex="1" parent="WIyWlLk6GJQsqaUBKTNV-1">
          <mxGeometry x="120" y="240" width="120" height="40" as="geometry" />
        </mxCell>
        <mxCell id="7qxpXvlb6t2TTMwRAWj1-15" style="edgeStyle=orthogonalEdgeStyle;rounded=0;orthogonalLoop=1;jettySize=auto;html=1;entryX=0;entryY=0.5;entryDx=0;entryDy=0;" edge="1" parent="WIyWlLk6GJQsqaUBKTNV-1" source="7qxpXvlb6t2TTMwRAWj1-16" target="7qxpXvlb6t2TTMwRAWj1-14">
          <mxGeometry relative="1" as="geometry" />
        </mxCell>
        <mxCell id="7qxpXvlb6t2TTMwRAWj1-16" value="Logica y Programa" style="rounded=1;whiteSpace=wrap;html=1;" vertex="1" parent="WIyWlLk6GJQsqaUBKTNV-1">
          <mxGeometry x="-40" y="240" width="120" height="40" as="geometry" />
        </mxCell>
        <mxCell id="7qxpXvlb6t2TTMwRAWj1-21" style="edgeStyle=orthogonalEdgeStyle;rounded=0;orthogonalLoop=1;jettySize=auto;html=1;entryX=0;entryY=0.5;entryDx=0;entryDy=0;startArrow=classic;startFill=1;" edge="1" parent="WIyWlLk6GJQsqaUBKTNV-1" source="7qxpXvlb6t2TTMwRAWj1-18" target="7qxpXvlb6t2TTMwRAWj1-22">
          <mxGeometry relative="1" as="geometry" />
        </mxCell>
        <mxCell id="7qxpXvlb6t2TTMwRAWj1-18" value="Procesamiento de Datos" style="rounded=1;whiteSpace=wrap;html=1;" vertex="1" parent="WIyWlLk6GJQsqaUBKTNV-1">
          <mxGeometry x="440" y="240" width="120" height="40" as="geometry" />
        </mxCell>
        <mxCell id="7qxpXvlb6t2TTMwRAWj1-23" style="edgeStyle=orthogonalEdgeStyle;rounded=0;orthogonalLoop=1;jettySize=auto;html=1;entryX=1;entryY=0.5;entryDx=0;entryDy=0;startArrow=classic;startFill=1;" edge="1" parent="WIyWlLk6GJQsqaUBKTNV-1" source="7qxpXvlb6t2TTMwRAWj1-19" target="7qxpXvlb6t2TTMwRAWj1-22">
          <mxGeometry relative="1" as="geometry" />
        </mxCell>
        <mxCell id="7qxpXvlb6t2TTMwRAWj1-19" value="Base de Datos" style="whiteSpace=wrap;html=1;aspect=fixed;" vertex="1" parent="WIyWlLk6GJQsqaUBKTNV-1">
          <mxGeometry x="760" y="200" width="120" height="120" as="geometry" />
        </mxCell>
        <mxCell id="7qxpXvlb6t2TTMwRAWj1-22" value="SQL" style="rounded=1;whiteSpace=wrap;html=1;" vertex="1" parent="WIyWlLk6GJQsqaUBKTNV-1">
          <mxGeometry x="600" y="240" width="120" height="40" as="geometry" />
        </mxCell>
      </root>
    </mxGraphModel>
  </diagram>
</mxfile>
